<?xml version="1.0" encoding="utf-8"?>
<!-- Generator: Adobe Illustrator 24.0.0, SVG Export Plug-In . SVG Version: 6.00 Build 0)  -->
<svg version="1.1" id="Calque_1" xmlns="http://www.w3.org/2000/svg" xmlns:xlink="http://www.w3.org/1999/xlink" x="0px" y="0px"
	 viewBox="0 0 512 512" style="enable-background:new 0 0 512 512;" xml:space="preserve">
<style type="text/css">
	.st0{fill:#2DC091;}
</style>
<path class="st0" d="M460,4.9H52C26,4.9,4.9,26,4.9,52V460c0,26,21.1,47.1,47.1,47.1H460c26,0,47.1-21.1,47.1-47.1V52
	C507.1,26,486,4.9,460,4.9L460,4.9z M52,36.3H460c8.7,0,15.7,7,15.7,15.7v321.7H423l-55.6-116.1c-2.3-4.9-7-8.2-12.4-8.8
	c-5.3-0.6-10.7,1.6-14,5.8l-35.9,45l-84.9-138.2c-3-4.9-8.5-7.7-14.1-7.5c-5.7,0.3-10.8,3.6-13.4,8.8l-103.4,211H36.3V52
	C36.3,43.3,43.3,36.3,52,36.3z M124.4,373.6l84-171.5l81.7,133c2.7,4.4,7.3,7.1,12.4,7.5c5.2,0.3,10-1.9,13.2-5.9l34.2-42.9
	l38.3,79.9L124.4,373.6L124.4,373.6z M460,475.7H52c-8.6,0-15.7-7-15.7-15.7v-54.9h439.5V460C475.7,468.7,468.7,475.7,460,475.7z
	 M365.9,208.9c34.7,0,62.8-28.1,62.8-62.8c0-34.7-28.1-62.8-62.8-62.8c-34.7,0-62.8,28.1-62.8,62.8S331.2,208.9,365.9,208.9z
	 M365.9,114.7c17.3,0,31.4,14.1,31.4,31.4s-14.1,31.4-31.4,31.4c-17.3,0-31.4-14.1-31.4-31.4C334.5,128.8,348.6,114.7,365.9,114.7z"
	/>
</svg>
