<?xml version="1.0" encoding="utf-8"?>
<!-- Generator: Adobe Illustrator 24.0.0, SVG Export Plug-In . SVG Version: 6.00 Build 0)  -->
<svg version="1.1" id="Calque_1" xmlns="http://www.w3.org/2000/svg" xmlns:xlink="http://www.w3.org/1999/xlink" x="0px" y="0px"
	 viewBox="0 0 1000 1000" style="enable-background:new 0 0 1000 1000;" xml:space="preserve">
<style type="text/css">
	.st0{fill:#2DC091;}
</style>
<g>
	<g transform="translate(0.000000,512.000000) scale(0.100000,-0.100000)">
		<path class="st0" d="M4526.2,5008.1c-1477.3-151.4-2791.8-942.7-3625.3-2186.3C594.3,2362,306.9,1678,197.7,1139.5
			C115.3,733.3,100,574.3,100,124s15.3-605.5,97.7-1015.5C305-1422.3,592.4-2108.3,900.9-2573.9
			c921.6-1377.7,2458.4-2207.3,4094.7-2207.3c1850.9,0,3556.3,1059.6,4386,2722.8c831.6,1668.9,653.4,3631-467.5,5123.7
			c-776,1034.7-1921.8,1714.9-3228.6,1916.1C5445.9,5017.7,4771.4,5035,4526.2,5008.1z M5675.9,4360.5
			c272.1-46,647.6-147.5,862.2-231.8c1291.5-507.8,2259.1-1592.3,2604-2912.5C9247.5,810,9276.2,574.3,9276.2,124
			s-28.8-686-134.1-1092.2c-389-1486.9-1567.4-2665.3-3054.3-3054.3c-406.2-105.4-641.9-134.1-1092.2-134.1s-686,28.7-1092.2,134.1
			c-925.5,241.4-1755.2,799-2331.9,1569.3c-438.8,582.5-703.2,1211-823.9,1954.4c-46,295.1-46,952.3,1.9,1245.5
			c155.2,956.1,553.8,1741.7,1216.7,2406.6c726.2,726.2,1649.8,1157.3,2684.5,1251.2C4857.7,4423.7,5451.7,4396.9,5675.9,4360.5z"/>
		<path class="st0" d="M3639,2546c-34.5-19.2-86.2-63.2-115-99.6l-51.7-67.1l-5.7-2230.4c-5.8-2487.1-13.4-2308.9,126.5-2416.2
			c55.6-42.2,88.1-51.7,174.4-51.7h107.3l1791.6,1088.3C6651.3-631,7484.8-111.7,7519.3-77.2c107.3,113,107.3,289.3,0,402.4
			c-34.5,34.5-866.1,553.8-1851,1151.6C3721.4,2659,3790.4,2622.6,3639,2546z M5398,921.1C6340.7,348.2,6693.3,124,6676,108.7
			c-32.6-26.8-2581-1575-2590.6-1575c-5.7,0-9.6,716.6-9.6,1590.4c0,875.7,3.8,1590.4,9.6,1590.4
			C4091.2,1714.4,4681.4,1358,5398,921.1z"/>
	</g>
</g>
</svg>
